<svg width="95" height="95" viewBox="0 0 95 95" fill="none" xmlns="http://www.w3.org/2000/svg">
<rect x="0.5" y="0.5" width="94" height="94" rx="14.5" fill="#020C1B" stroke="#64FFDA"/>
<path d="M43.1 63.9C39.2667 63.9 35.9583 62.5417 33.175 59.825C30.3917 57.1083 29 53.8833 29 50.15V37C29 36.2 29.3 35.5 29.9 34.9C30.5 34.3 31.2 34 32 34H58.45C60.25 34 61.7917 34.6167 63.075 35.85C64.3583 37.0833 65 38.6 65 40.4C65 42.2 64.3583 43.7167 63.075 44.95C61.7917 46.1833 60.25 46.8 58.45 46.8H57.2V50.15C57.2 53.8833 55.8083 57.1083 53.025 59.825C50.2417 62.5417 46.9333 63.9 43.1 63.9ZM32 43.8H54.2V37H32V43.8ZM43.1 60.9C46.1333 60.9 48.7417 59.8417 50.925 57.725C53.1083 55.6083 54.2 53.0833 54.2 50.15V46.8H32V50.15C32 53.0833 33.0917 55.6083 35.275 57.725C37.4583 59.8417 40.0667 60.9 43.1 60.9ZM57.2 43.8H58.45C59.4167 43.8 60.25 43.475 60.95 42.825C61.65 42.175 62 41.3667 62 40.4C62 39.4333 61.65 38.625 60.95 37.975C60.25 37.325 59.4167 37 58.45 37H57.2V43.8ZM29 70V67H60.7V70H29Z" fill="#64FFDA"/>
</svg>
