<svg width="95" height="95" viewBox="0 0 95 95" fill="none" xmlns="http://www.w3.org/2000/svg">
<rect x="0.5" y="0.5" width="94" height="94" rx="14.5" fill="#020C1B" stroke="#64FFDA"/>
<path d="M33.1079 67.217C32.1207 67.2189 31.1377 67.0757 30.1848 66.7913C27.3245 65.8909 24.8978 63.789 23.4253 60.9365C21.9529 58.0839 21.552 54.708 22.3088 51.533L27.0385 31.7264C27.4068 30.1234 28.0616 28.6179 28.9645 27.2981C29.8673 25.9784 31 24.8711 32.2959 24.0413C33.5578 23.2346 34.9521 22.7122 36.3982 22.5045C37.8442 22.2969 39.3132 22.4079 40.7201 22.8314C42.2156 23.2898 43.6085 24.0861 44.8106 25.1699C46.0126 26.2537 46.9976 27.6013 47.703 29.1274H52.9808C53.6831 27.5989 54.6671 26.2493 55.8696 25.1651C57.0721 24.0808 58.4666 23.286 59.9637 22.8314C61.3705 22.4079 62.8395 22.2969 64.2856 22.5045C65.7316 22.7122 67.126 23.2346 68.3878 24.0413C69.6775 24.869 70.806 25.9702 71.7083 27.2815C72.6106 28.5928 73.2689 30.0882 73.6453 31.6816L78.375 51.533C79.143 54.7173 78.7453 58.1072 77.2678 60.9706C75.7904 63.8339 73.3517 65.9408 70.4786 66.8361C69.0718 67.2595 67.6027 67.3706 66.1567 67.1629C64.7107 66.9552 63.3163 66.4329 62.0545 65.6262C60.7627 64.8014 59.6326 63.7011 58.7299 62.3894C57.8273 61.0776 57.1702 59.5807 56.797 57.9858L56.4316 56.0141H44.2521L43.7852 57.941C43.412 59.5359 42.755 61.0328 41.8523 62.3445C40.9497 63.6563 39.8196 64.7566 38.5278 65.5814C36.8784 66.6314 35.0118 67.1947 33.1079 67.217ZM37.8173 26.8868C36.5923 26.8914 35.3894 27.2465 34.3258 27.9174C32.659 28.9969 31.4474 30.7612 30.9562 32.8243L26.2265 52.6309C25.7316 54.6715 25.9816 56.8449 26.923 58.6842C27.8643 60.5234 29.4218 61.8816 31.2607 62.467C32.1488 62.7344 33.0761 62.8047 33.989 62.674C34.9019 62.5432 35.7822 62.2139 36.5791 61.7052C37.4087 61.1765 38.1342 60.4701 38.7129 59.6274C39.2915 58.7847 39.7117 57.8229 39.9487 56.7983L41.2073 51.533H59.4765L60.7147 56.7983C60.9559 57.8209 61.3778 58.7808 61.956 59.6228C62.5343 60.4649 63.2576 61.1726 64.0844 61.7052C64.8852 62.2134 65.7689 62.5423 66.685 62.673C67.6011 62.8038 68.5315 62.7337 69.4231 62.467C71.2642 61.8871 72.8236 60.5287 73.7624 58.6869C74.7012 56.8451 74.9436 54.6688 74.437 52.6309L69.7073 32.8243C69.4716 31.8021 69.0541 30.8419 68.4791 29.9995C67.9041 29.1571 67.183 28.4494 66.3579 27.9174C65.5571 27.4092 64.6734 27.0803 63.7573 26.9496C62.8412 26.8189 61.9108 26.8889 61.0192 27.1557C59.9167 27.5026 58.905 28.1348 58.0683 28.9999C57.2316 29.865 56.5939 30.938 56.2083 32.1297L55.7211 33.6085H44.9626L44.4754 32.1297C44.0864 30.9364 43.4452 29.8627 42.6049 28.9976C41.7647 28.1326 40.7498 27.5011 39.6442 27.1557C39.0485 26.9784 38.4343 26.888 37.8173 26.8868Z" fill="#64FFDA"/>
<path d="M38.1624 44.8114C37.3594 44.8114 36.5745 44.5486 35.9069 44.0562C35.2392 43.5638 34.7189 42.8639 34.4116 42.0451C34.1043 41.2263 34.0239 40.3253 34.1806 39.456C34.3372 38.5868 34.7239 37.7883 35.2917 37.1616C35.8594 36.5349 36.5828 36.1081 37.3704 35.9352C38.1579 35.7623 38.9742 35.8511 39.716 36.1902C40.4579 36.5294 41.0919 37.1038 41.538 37.8407C41.9841 38.5776 42.2222 39.444 42.2222 40.3303C42.2222 41.5187 41.7945 42.6585 41.0331 43.4989C40.2718 44.3393 39.2391 44.8114 38.1624 44.8114Z" fill="#64FFDA"/>
<path d="M62.5214 38.0897C63.6425 38.0897 64.5513 37.0865 64.5513 35.8491C64.5513 34.6117 63.6425 33.6085 62.5214 33.6085C61.4003 33.6085 60.4915 34.6117 60.4915 35.8491C60.4915 37.0865 61.4003 38.0897 62.5214 38.0897Z" fill="#64FFDA"/>
<path d="M62.5214 47.0519C63.6425 47.0519 64.5513 46.0488 64.5513 44.8114C64.5513 43.5739 63.6425 42.5708 62.5214 42.5708C61.4003 42.5708 60.4915 43.5739 60.4915 44.8114C60.4915 46.0488 61.4003 47.0519 62.5214 47.0519Z" fill="#64FFDA"/>
<path d="M58.4616 42.5707C59.5826 42.5707 60.4915 41.5676 60.4915 40.3302C60.4915 39.0927 59.5826 38.0896 58.4616 38.0896C57.3405 38.0896 56.4316 39.0927 56.4316 40.3302C56.4316 41.5676 57.3405 42.5707 58.4616 42.5707Z" fill="#64FFDA"/>
<path d="M66.5812 42.5707C67.7023 42.5707 68.6111 41.5676 68.6111 40.3302C68.6111 39.0927 67.7023 38.0896 66.5812 38.0896C65.4601 38.0896 64.5513 39.0927 64.5513 40.3302C64.5513 41.5676 65.4601 42.5707 66.5812 42.5707Z" fill="#64FFDA"/>
</svg>
