<svg width="491" height="474" viewBox="0 0 491 474" fill="none" xmlns="http://www.w3.org/2000/svg">
<g clip-path="url(#clip0_55_5)">
<path d="M245.977 5.78613C268.469 5.78613 290.164 8.56348 311.061 14.1182C331.958 19.6729 351.42 27.6963 369.446 38.1885C387.471 48.6807 403.982 61.0244 418.977 75.2197C433.972 89.415 446.813 105.385 457.501 123.129C468.189 140.873 476.404 159.774 482.147 179.833C487.889 199.892 490.841 220.876 491 242.786C491 268.245 487.012 292.778 479.036 316.386C471.06 339.993 459.654 361.672 444.819 381.422C429.984 401.172 412.357 418.453 391.938 433.266C371.519 448.078 348.708 459.573 323.504 467.751C323.025 467.905 322.307 467.982 321.35 467.982C320.393 467.982 319.675 468.06 319.197 468.214C315.368 468.214 312.337 467.134 310.104 464.974C307.871 462.813 306.754 459.959 306.754 456.41V424.008C306.754 413.361 306.834 402.483 306.994 391.374C306.994 383.505 305.797 375.559 303.404 367.535C301.012 359.512 296.704 352.8 290.483 347.399C308.988 345.394 325.179 341.768 339.057 336.521C352.935 331.275 364.58 323.869 373.992 314.303C383.404 304.736 390.423 293.164 395.049 279.586C399.675 266.008 402.068 249.652 402.227 230.52C402.227 218.484 400.153 207.144 396.006 196.497C391.858 185.851 385.557 175.976 377.103 166.872C378.857 162.552 380.134 158.077 380.931 153.448C381.729 148.819 382.128 144.19 382.128 139.562C382.128 133.544 381.489 127.604 380.213 121.74C378.937 115.877 377.103 110.014 374.71 104.15C373.912 103.842 373.035 103.688 372.078 103.688C371.121 103.688 370.243 103.688 369.446 103.688C364.341 103.688 358.997 104.459 353.414 106.002C347.831 107.545 342.327 109.551 336.904 112.02C331.48 114.488 326.136 117.188 320.872 120.12C315.608 123.052 311.061 125.829 307.233 128.452C287.293 123.052 266.874 120.352 245.977 120.352C225.08 120.352 204.661 123.052 184.721 128.452C180.733 125.829 176.187 123.052 171.082 120.12C165.978 117.188 160.714 114.565 155.29 112.251C149.866 109.937 144.283 107.931 138.54 106.233C132.798 104.536 127.454 103.688 122.508 103.688H119.876C118.919 103.688 118.042 103.842 117.244 104.15C115.011 109.859 113.256 115.646 111.98 121.509C110.704 127.372 109.986 133.39 109.827 139.562C109.827 144.19 110.225 148.819 111.023 153.448C111.821 158.077 113.097 162.552 114.852 166.872C106.397 175.821 100.096 185.619 95.9484 196.266C91.8008 206.912 89.7271 218.33 89.7271 230.52C89.7271 249.344 92.0401 265.622 96.6662 279.354C101.292 293.087 108.311 304.659 117.723 314.071C127.135 323.483 138.78 330.967 152.658 336.521C166.536 342.076 182.727 345.779 201.232 347.631C196.606 351.643 193.096 356.426 190.703 361.98C188.311 367.535 186.636 373.321 185.678 379.339C181.371 381.345 176.825 382.888 172.039 383.968C167.254 385.048 162.468 385.588 157.683 385.588C147.473 385.588 139.019 383.273 132.319 378.645C125.619 374.016 119.637 367.689 114.373 359.666C112.459 356.734 110.146 353.803 107.434 350.871C104.722 347.939 101.771 345.316 98.5804 343.002C95.39 340.688 91.9604 338.836 88.2914 337.447C84.6224 336.059 80.7939 335.287 76.8059 335.133H73.9346C72.6584 335.133 71.462 335.364 70.3454 335.827C69.2287 336.29 68.1121 336.753 66.9955 337.216C65.8788 337.679 65.4002 338.45 65.5598 339.53C65.5598 341.382 66.6764 343.156 68.9097 344.854C71.143 346.551 72.9775 347.939 74.4131 349.02L75.131 349.482C78.6404 352.105 81.6713 354.574 84.2236 356.889C86.776 359.203 89.1688 361.749 91.402 364.526C93.6353 367.304 95.4698 370.235 96.9055 373.321C98.3412 376.407 100.176 380.033 102.409 384.199C107.833 396.234 115.41 404.952 125.141 410.353C134.871 415.753 146.596 418.53 160.315 418.685C164.462 418.685 168.61 418.453 172.757 417.99C176.905 417.527 181.052 416.833 185.2 415.907V456.179C185.2 459.882 184.083 462.813 181.85 464.974C179.617 467.134 176.506 468.214 172.518 468.214H170.604C169.806 468.214 169.088 468.06 168.45 467.751C143.406 459.882 120.594 448.541 100.016 433.729C79.438 418.916 61.811 401.558 47.1352 381.653C32.4593 361.749 21.1334 339.993 13.1574 316.386C5.18139 292.778 1.11362 268.245 0.954102 242.786C0.954102 221.03 3.82546 200.046 9.56819 179.833C15.3109 159.62 23.606 140.796 34.4533 123.36C45.3007 105.925 58.0623 89.9551 72.7382 75.4512C87.414 60.9473 103.924 48.5264 122.269 38.1885C140.614 27.8506 160.155 19.9043 180.893 14.3496C201.63 8.79492 223.325 5.94043 245.977 5.78613Z" fill="white"/>
</g>
<defs>
<clipPath id="clip0_55_5">
<rect width="490.046" height="474" fill="white" transform="translate(0.954102)"/>
</clipPath>
</defs>
</svg>
