<svg width="75" height="75" viewBox="0 0 75 75" fill="none" xmlns="http://www.w3.org/2000/svg">
<path d="M9.65698 48.3463C9.72104 48.5049 9.79345 48.6514 9.87143 48.7978C9.90763 48.8832 9.95776 48.9717 10.0023 49.051C10.0747 49.2097 10.1527 49.3622 10.2279 49.5148L10.6651 50.3203C10.7459 50.4698 10.8239 50.6162 10.9158 50.7627C11.069 51.0495 11.25 51.3301 11.4087 51.6169C11.4811 51.7359 11.548 51.8549 11.6287 51.9739C11.9351 52.4956 12.2136 52.9289 12.5116 53.3499C12.7232 53.6642 12.9349 53.9723 13.1633 54.2805C13.2384 54.3964 13.322 54.5124 13.4 54.6283L14.0155 55.446C14.0906 55.5405 14.1658 55.6504 14.2466 55.748C14.5195 56.108 14.8092 56.4559 15.0988 56.8098C15.0988 56.8159 15.1072 56.822 15.1127 56.8311C15.472 57.3254 15.8591 57.7647 16.2824 58.1553L16.2936 58.1675C16.5164 58.4177 16.7391 58.6648 16.9759 58.9089L17.2572 59.2048C17.5663 59.5221 17.8754 59.8364 18.2013 60.1415C18.2068 60.1415 18.2096 60.1476 18.2152 60.1506L18.3739 60.3032C18.658 60.5747 18.9448 60.8432 19.2373 61.0934L19.5854 61.4137C19.8221 61.6212 20.0672 61.8165 20.3095 62.0209L20.6882 62.3382C20.9472 62.5518 21.2229 62.7592 21.4875 62.9667C21.585 63.043 21.6825 63.1193 21.7827 63.1894L21.8635 63.2596L22.6461 63.821L22.9803 64.0651C23.3896 64.3519 23.7962 64.6204 24.2029 64.8888C24.3198 64.9529 24.4368 65.0231 24.5454 65.0963C24.8462 65.2855 25.1581 65.4777 25.4617 65.6516C25.6288 65.7553 25.8014 65.8438 25.9741 65.9384C26.183 66.0665 26.4002 66.1916 26.623 66.3198C26.6843 66.3411 26.7344 66.3625 26.7845 66.393L26.7957 66.3808C26.8876 66.4266 26.9739 66.4754 27.063 66.5242C27.3972 66.7073 27.7453 66.8812 28.1074 67.052C28.1742 67.0825 28.2466 67.113 28.319 67.1558C28.7201 67.348 29.1211 67.531 29.5361 67.708C29.6307 67.7385 29.731 67.7904 29.8285 67.83C30.2045 67.9856 30.5916 68.1443 30.9759 68.2938L31.1151 68.3487C31.5412 68.5074 31.9618 68.6599 32.3962 68.8033C32.4965 68.8338 32.5995 68.8735 32.7053 68.904C33.1482 69.0504 33.577 69.2243 34.0254 69.3159C62.6354 74.9999 70.9485 50.5643 70.9485 50.5643C63.9638 60.4801 51.5679 63.0949 39.8293 60.1842C39.3948 60.0743 38.9604 59.9218 38.5204 59.7815C37.8993 59.5889 37.2835 59.3762 36.6739 59.1438L36.9385 59.2323L36.7658 59.159C36.3871 59.0187 36.0222 58.8631 35.6518 58.7075C35.5612 58.6654 35.4692 58.6267 35.3761 58.5916L35.3455 58.5824C34.9361 58.4024 34.5379 58.2193 34.1424 58.0271C34.0561 57.9966 33.9836 57.9539 33.8973 57.9173C33.4289 57.6936 32.9646 57.4597 32.5048 57.2156L32.8892 57.4017C32.7889 57.3531 32.6904 57.3002 32.594 57.243C32.3322 57.1088 32.0704 56.9562 31.8142 56.8128C31.619 56.7115 31.4268 56.6037 31.2377 56.4894L31.2934 56.5199C30.9787 56.3369 30.664 56.1385 30.3465 55.9524C30.2518 55.8792 30.1432 55.8182 30.0346 55.7511C29.5627 55.4506 29.0965 55.1393 28.6365 54.8175L28.812 54.9334C28.6941 54.8536 28.5789 54.7692 28.4666 54.6802L28.4833 54.6924C28.184 54.491 27.8905 54.2793 27.6033 54.0578C27.5086 53.9906 27.4223 53.9174 27.3248 53.8442C27.0247 53.6198 26.7295 53.3879 26.4392 53.1486L26.506 53.2004C26.389 53.0967 26.2637 52.9991 26.1384 52.8984C25.8933 52.6878 25.6455 52.4865 25.4004 52.2668L25.0718 51.98C24.7215 51.6747 24.3779 51.3604 24.0413 51.0373L24.0385 51.0342L23.0722 50.0731L22.7937 49.7863C22.5653 49.5331 22.3314 49.2921 22.0974 49.0419L21.8273 48.7368C21.5389 48.424 21.2576 48.1035 20.9834 47.7757L20.9667 47.7544L20.9194 47.7116C20.6245 47.3569 20.3339 46.9978 20.0477 46.6346C19.9725 46.5401 19.9029 46.4394 19.8249 46.3387L19.1927 45.4997C18.9077 45.1075 18.6292 44.7098 18.3572 44.3067L18.2458 44.1359C11.7346 34.4458 9.37849 21.0732 14.5892 10.1018L9.9884 16.4754C4.07035 25.7474 4.80279 37.805 9.32836 47.6506C9.4314 47.8917 9.54559 48.1174 9.65698 48.3463Z" fill="#1266A9"/>
<path d="M29.5927 34.989L29.56 34.9402L29.5333 34.9036L29.5927 34.989Z" fill="black"/>
<path d="M32.7026 38.9919L32.9532 39.2665C33.2707 39.6021 33.5965 39.9286 33.928 40.255L33.9697 40.2947C34.3039 40.6181 34.6799 40.9567 35.067 41.2862L35.1255 41.3351C35.2202 41.4052 35.3009 41.4876 35.3928 41.5578C35.7827 41.8873 36.1754 42.2016 36.5848 42.5158L36.6266 42.5433C36.7993 42.6806 36.9831 42.8057 37.178 42.9399C37.256 42.9948 37.3451 43.068 37.4287 43.123C37.7239 43.3304 38.0135 43.5226 38.3115 43.721C38.3588 43.7423 38.4006 43.7698 38.4452 43.7911C38.6958 43.9589 38.9687 44.1206 39.2305 44.2671C39.3224 44.3281 39.4115 44.3739 39.5062 44.4318C39.6928 44.5325 39.8766 44.6393 40.0549 44.743L40.144 44.7858C40.52 44.9871 40.9043 45.1763 41.2803 45.3624C41.375 45.4021 41.4557 45.4356 41.5365 45.4783C41.8456 45.6248 42.1603 45.7651 42.4694 45.8933C42.6087 45.9451 42.7396 46.0062 42.8705 46.0519C43.1545 46.1679 43.4525 46.2747 43.7338 46.3814L44.1237 46.5187C44.5303 46.656 44.9425 46.836 45.3742 46.9093C67.4673 50.8939 72.5805 32.3529 72.5805 32.3529C67.9769 39.5746 59.0678 43.0162 49.5739 40.3282C49.1 40.1973 48.63 40.0498 48.1647 39.8858L48.3234 39.9347C48.1898 39.895 48.0728 39.8492 47.9447 39.8065C47.655 39.6967 47.3571 39.5899 47.0758 39.477L46.6747 39.3122C46.3628 39.1749 46.0453 39.0468 45.7418 38.9004C45.6471 38.8546 45.5608 38.8241 45.4883 38.7783C45.0984 38.5861 44.7058 38.3969 44.3242 38.1956L43.7505 37.8691L43.4191 37.6861C43.1629 37.5396 42.9262 37.3871 42.6811 37.2315C42.6186 37.1993 42.5581 37.1626 42.5001 37.1216L42.5084 37.1247C42.2132 36.9233 41.9069 36.728 41.6228 36.5236C41.5281 36.4656 41.4418 36.3955 41.3527 36.3345L40.7734 35.9226C40.3724 35.6175 39.9797 35.291 39.5814 34.9737C39.4923 34.8852 39.406 34.812 39.3196 34.7327C35.145 31.1538 31.8532 26.2631 30.2908 20.7255C28.6449 14.9682 29.0069 8.51227 31.8504 3.27368L28.3552 8.66787C24.0636 15.3832 24.3059 24.3592 27.6479 31.462C28.2578 32.7739 28.876 33.8814 29.5583 34.9371C30.1933 35.9317 30.8951 37.0972 31.7418 37.8966C32.0425 38.2718 32.3656 38.6288 32.7026 38.9919Z" fill="#1266A9"/>
<path d="M12.5255 53.3683L12.5143 53.35L12.4948 53.3226L12.5255 53.3683ZM24.1054 51.0984L24.1332 51.1197L24.1388 51.1289L24.1054 51.0984Z" fill="black"/>
<path d="M43.8006 2.82829C41.2691 6.87698 41.0268 11.9051 42.7702 16.3687C44.6222 21.11 48.407 24.8322 52.8183 26.5957C52.9994 26.672 53.1748 26.736 53.3614 26.8092L53.6065 26.8916C53.8627 26.9801 54.1217 27.0838 54.3863 27.1479C66.5872 29.7138 69.8902 20.3197 70.7786 18.9376C67.8739 23.4836 63.003 24.5759 57.0264 22.9924C56.5068 22.8536 55.9952 22.6804 55.4947 22.4738L55.5866 22.5073C54.9638 22.2712 54.3538 21.9961 53.7597 21.6835L53.8655 21.7354C52.7237 21.1252 51.7433 20.4662 50.8327 19.7095C45.4911 15.2856 42.1881 6.86173 45.6749 0L43.8006 2.82829Z" fill="#1266A9"/>
</svg>
