<svg width="76" height="73" viewBox="0 0 76 73" fill="none" xmlns="http://www.w3.org/2000/svg">
<path d="M20.6445 15.2617H29.832L50.5039 58H41.3984L37.9805 50.8086H13.0156L9.70703 58H0.574219L20.6445 15.2617ZM34.5625 43.6719L25.3203 24.2578L16.3242 43.6719H34.5625ZM48.918 65.082C50.1758 64.3164 51.2513 63.5143 52.1445 62.6758C53.056 61.8372 53.8034 60.9076 54.3867 59.8867C54.9701 58.8841 55.3984 57.763 55.6719 56.5234C55.9453 55.2656 56.082 53.8438 56.082 52.2578V15.2617H64.75V50.6992C64.75 52.5951 64.668 54.3268 64.5039 55.8945C64.3398 57.444 64.0664 58.8659 63.6836 60.1602C63.319 61.4727 62.8177 62.6758 62.1797 63.7695C61.5599 64.8633 60.7852 65.9023 59.8555 66.8867C58.944 67.8711 57.8594 68.819 56.6016 69.7305C55.362 70.6419 53.9219 71.5625 52.2812 72.4922L48.918 65.082Z" fill="#D2DAF7"/>
<path d="M26.6445 13.2617H35.832L56.5039 56H47.3984L43.9805 48.8086H19.0156L15.707 56H6.57422L26.6445 13.2617ZM40.5625 41.6719L31.3203 22.2578L22.3242 41.6719H40.5625ZM54.918 63.082C56.1758 62.3164 57.2513 61.5143 58.1445 60.6758C59.056 59.8372 59.8034 58.9076 60.3867 57.8867C60.9701 56.8841 61.3984 55.763 61.6719 54.5234C61.9453 53.2656 62.082 51.8438 62.082 50.2578V13.2617H70.75V48.6992C70.75 50.5951 70.668 52.3268 70.5039 53.8945C70.3398 55.444 70.0664 56.8659 69.6836 58.1602C69.319 59.4727 68.8177 60.6758 68.1797 61.7695C67.5599 62.8633 66.7852 63.9023 65.8555 64.8867C64.944 65.8711 63.8594 66.819 62.6016 67.7305C61.362 68.6419 59.9219 69.5625 58.2812 70.4922L54.918 63.082Z" fill="#64FFDA"/>
</svg>
