<svg width="95" height="95" viewBox="0 0 95 95" fill="none" xmlns="http://www.w3.org/2000/svg">
<rect x="0.5" y="0.5" width="94" height="94" rx="14.5" fill="#020C1B" stroke="#64FFDA"/>
<path d="M47.1461 13.4782C40.2993 13.4618 33.67 16.2013 28.441 21.2079C19.6494 29.547 17.7589 43.4397 19.0346 55.1735L21.0173 73.5056C21.1056 74.2971 21.4675 75.0167 22.0236 75.5063C22.5798 75.9959 23.2847 76.2155 23.9837 76.117L31.7762 75.0202C32.1216 74.9728 32.4553 74.8487 32.7583 74.6549C33.0612 74.4611 33.3274 74.2015 33.5416 73.891C33.7558 73.5805 33.9137 73.2251 34.0064 72.8453C34.0991 72.4655 34.1247 72.0686 34.0817 71.6776L32.0836 52.7362C32.0349 52.3559 31.92 51.9902 31.7456 51.6605C31.5713 51.3307 31.341 51.0434 31.068 50.8151C30.795 50.5868 30.4847 50.4221 30.1552 50.3305C29.8256 50.239 29.4833 50.2223 29.148 50.2815L26.3046 50.7342C26.0914 49.3425 25.9784 47.9335 25.9664 46.5211C25.9664 40.1447 28.2027 34.0294 32.1833 29.5206C36.1639 25.0118 41.5628 22.4788 47.1922 22.4788C52.8217 22.4788 58.2206 25.0118 62.2012 29.5206C66.1818 34.0294 68.4181 40.1447 68.4181 46.5211C68.4136 47.9051 68.3005 49.2859 68.0799 50.6471L65.2826 50.2641C64.9374 50.2154 64.587 50.2444 64.2517 50.3494C63.9164 50.4544 63.6026 50.6333 63.3285 50.8759C63.0543 51.1185 62.8252 51.42 62.6541 51.7632C62.483 52.1063 62.3734 52.4843 62.3316 52.8755L60.272 71.7298C60.1842 72.509 60.3703 73.2961 60.7901 73.9213C61.2098 74.5466 61.8297 74.96 62.516 75.0724L70.2932 76.1518C70.6408 76.2054 70.9943 76.1802 71.3332 76.0775C71.6721 75.9748 71.9896 75.7967 72.2671 75.5537C72.5446 75.3106 72.7766 75.0075 72.9497 74.6618C73.1227 74.3161 73.2333 73.9349 73.2749 73.5404L75.1347 55.2084C76.4719 43.4919 74.4738 29.5296 65.7283 21.2602C60.5279 16.2111 53.9033 13.4381 47.0539 13.4434L47.1461 13.4782Z" fill="#64FFDA" stroke="#64FFDA" stroke-linecap="round" stroke-linejoin="round"/>
</svg>
