<svg width="85" height="85" viewBox="0 0 85 85" fill="none" xmlns="http://www.w3.org/2000/svg">
<path d="M85 42.5077C85 37.5661 77.9484 32.8829 67.1372 29.9787C69.6321 20.3083 68.5232 12.6146 63.6374 10.1514C62.5112 9.57356 61.1945 9.29987 59.7564 9.29987V12.6906C60.5534 12.6906 61.1945 12.8274 61.7316 13.0859C64.0879 14.2719 65.1101 18.7878 64.3131 24.5962C64.1225 26.0254 63.8106 27.5307 63.4295 29.0664C60.0336 28.3366 56.3259 27.774 52.4276 27.4091C50.0887 24.5962 47.6631 22.0417 45.2201 19.8066C50.8683 15.1994 56.17 12.6754 59.7738 12.6754V9.28467C55.0092 9.28467 48.7719 12.2649 42.4654 17.4346C36.1588 12.2953 29.9215 9.34549 25.157 9.34549V12.7362C28.7434 12.7362 34.0624 15.245 39.7106 19.8218C37.285 22.0569 34.8594 24.5962 32.555 27.4091C28.6394 27.774 24.9317 28.3366 21.5359 29.0816C21.1374 27.5611 20.8428 26.0863 20.6349 24.6722C19.8206 18.8639 20.8255 14.348 23.1645 13.1468C23.6843 12.8731 24.36 12.7514 25.157 12.7514V9.36069C23.7016 9.36069 22.3848 9.63438 21.2413 10.2122C16.3728 12.6754 15.2813 20.3539 17.7935 29.994C7.01692 32.9133 0 37.5813 0 42.5077C0 47.4494 7.05157 52.1325 17.8628 55.0367C15.3679 64.7071 16.4768 72.4008 21.3626 74.8641C22.4888 75.4419 23.8055 75.7156 25.2609 75.7156C30.0255 75.7156 36.2627 72.7354 42.5693 67.5656C48.8759 72.7049 55.1131 75.6547 59.8777 75.6547C61.3331 75.6547 62.6498 75.381 63.7933 74.8032C68.6618 72.34 69.7534 64.6615 67.2411 55.0215C77.9831 52.1173 85 47.4341 85 42.5077ZM62.4419 32.3659C61.8009 34.3274 61.0039 36.3497 60.1029 38.3719C59.3926 37.1555 58.6476 35.9391 57.8333 34.7227C57.0363 33.5063 56.1873 32.3203 55.3384 31.1647C57.7986 31.484 60.1722 31.8794 62.4419 32.3659ZM54.5067 48.5593C53.1553 50.612 51.7693 52.5583 50.3312 54.3677C47.7497 54.5653 45.1335 54.6718 42.5 54.6718C39.8838 54.6718 37.2676 54.5653 34.7034 54.3829C33.2654 52.5735 31.862 50.6424 30.5106 48.6049C29.1938 46.6131 27.9984 44.5908 26.9069 42.5533C27.981 40.5158 29.1938 38.4784 30.4933 36.4865C31.8447 34.4338 33.2307 32.4876 34.6688 30.6782C37.2503 30.4805 39.8665 30.3741 42.5 30.3741C45.1162 30.3741 47.7324 30.4805 50.2966 30.663C51.7346 32.4724 53.138 34.4034 54.4894 36.4409C55.8062 38.4328 57.0016 40.455 58.0932 42.4925C57.0016 44.53 55.8062 46.5675 54.5067 48.5593ZM60.1029 46.5827C61.0385 48.6201 61.8355 50.6576 62.4939 52.6343C60.2242 53.1208 57.8333 53.5314 55.3557 53.8507C56.2047 52.6799 57.0536 51.4787 57.8506 50.2471C58.6476 49.0307 59.3926 47.7991 60.1029 46.5827ZM42.5347 62.8065C40.9234 61.3468 39.3121 59.7198 37.7181 57.9408C39.2774 58.0017 40.8714 58.0473 42.4827 58.0473C44.1113 58.0473 45.7226 58.0169 47.2992 57.9408C45.7399 59.7198 44.1286 61.3468 42.5347 62.8065ZM29.6443 53.8507C27.1841 53.5314 24.8104 53.136 22.5408 52.6495C23.1818 50.688 23.9788 48.6658 24.8797 46.6435C25.5901 47.8599 26.3351 49.0763 27.1494 50.2927C27.9637 51.5091 28.7954 52.6951 29.6443 53.8507ZM42.448 22.209C44.0593 23.6686 45.6706 25.2956 47.2646 27.0746C45.7053 27.0138 44.1113 26.9681 42.5 26.9681C40.8714 26.9681 39.2601 26.9986 37.6835 27.0746C39.2428 25.2956 40.8541 23.6686 42.448 22.209ZM29.627 31.1647C28.778 32.3355 27.9291 33.5367 27.1321 34.7683C26.3351 35.9847 25.5901 37.2011 24.8797 38.4176C23.9441 36.3801 23.1472 34.3426 22.4888 32.3659C24.7585 31.8946 27.1494 31.484 29.627 31.1647ZM13.9472 50.2015C7.8139 47.9055 3.84631 44.8949 3.84631 42.5077C3.84631 40.1205 7.8139 37.0947 13.9472 34.814C15.4372 34.2514 17.0658 33.7496 18.7464 33.2782C19.734 36.2584 21.0334 39.3603 22.6447 42.5381C21.0508 45.7008 19.7687 48.7874 18.7984 51.7524C17.0832 51.281 15.4545 50.7641 13.9472 50.2015ZM23.2684 71.9295C20.9121 70.7435 19.8899 66.2276 20.6869 60.4193C20.8775 58.99 21.1894 57.4847 21.5705 55.949C24.9664 56.6788 28.6741 57.2414 32.5724 57.6063C34.9113 60.4193 37.3369 62.9737 39.7799 65.2089C34.1317 69.816 28.83 72.34 25.2263 72.34C24.4466 72.3248 23.7882 72.188 23.2684 71.9295ZM64.3651 60.3432C65.1794 66.1516 64.1745 70.6675 61.8355 71.8687C61.3157 72.1424 60.64 72.264 59.843 72.264C56.2566 72.264 50.9376 69.7552 45.2894 65.1784C47.715 62.9433 50.1406 60.4041 52.445 57.5911C56.3606 57.2262 60.0683 56.6636 63.4641 55.9186C63.8626 57.4543 64.1745 58.9292 64.3651 60.3432ZM71.0355 50.2015C69.5455 50.7641 67.9168 51.2658 66.2362 51.7372C65.2487 48.757 63.9492 45.6552 62.338 42.4773C63.9319 39.3146 65.214 36.228 66.1843 33.263C67.8995 33.7344 69.5281 34.2514 71.0528 34.814C77.1861 37.1099 81.1537 40.1205 81.1537 42.5077C81.1364 44.8949 77.1688 47.9207 71.0355 50.2015Z" fill="#61DAFB"/>
<path d="M42.4827 49.4565C46.8556 49.4565 50.4005 46.3455 50.4005 42.5078C50.4005 38.6701 46.8556 35.5591 42.4827 35.5591C38.1098 35.5591 34.5648 38.6701 34.5648 42.5078C34.5648 46.3455 38.1098 49.4565 42.4827 49.4565Z" fill="#61DAFB"/>
</svg>
