<svg width="95" height="95" viewBox="0 0 95 95" fill="none" xmlns="http://www.w3.org/2000/svg">
<rect x="0.5" y="0.5" width="94" height="94" rx="14.5" fill="#020C1B" stroke="#64FFDA"/>
<path d="M66.5812 44.0147C66.5812 40.6723 64.6487 37.877 62.0882 37.2044C63.1113 35.1097 63.7393 32.6874 63.7393 30.0734C63.7393 22.3848 58.641 16.1321 52.3718 16.1321C48.0607 16.1321 44.3549 19.119 42.4252 23.4652C40.4956 19.119 36.7898 16.1321 32.4786 16.1321C26.2094 16.1321 21.1111 22.3848 21.1111 30.0734C21.1111 33.2171 21.9978 36.0925 23.4329 38.4242C22.7156 39.0675 22.1317 39.9087 21.7284 40.8798C21.325 41.851 21.1136 42.9248 21.1111 44.0147V71.8973C21.1111 75.7416 23.6603 78.8679 26.7949 78.8679H60.8974C64.032 78.8679 66.5812 75.7416 66.5812 71.8973V62.703L77.9487 69.6736V45.2764L66.5812 52.247V44.0147ZM52.3718 23.1027C55.5064 23.1027 58.0556 26.2291 58.0556 30.0734C58.0556 33.9177 55.5064 37.044 52.3718 37.044C49.2372 37.044 46.688 33.9177 46.688 30.0734C46.688 26.2291 49.2372 23.1027 52.3718 23.1027ZM32.4786 23.1027C35.6132 23.1027 38.1624 26.2291 38.1624 30.0734C38.1624 33.9177 35.6132 37.044 32.4786 37.044C29.344 37.044 26.7949 33.9177 26.7949 30.0734C26.7949 26.2291 29.344 23.1027 32.4786 23.1027ZM26.7949 71.8973V44.0147H60.8974L60.9031 71.8973H26.7949Z" fill="#64FFDA"/>
</svg>
